<svg width="1914" height="863" xmlns="http://www.w3.org/2000/svg"><g><path d="M-76,-82L-126,651L-83,127Z" fill="#eaffc3" stroke="#eaffc3"/><path d="M-76,-82L-83,127L88,116Z" fill="#ffffd7" stroke="#ffffd7"/><path d="M-76,-82L88,116L38,-140Z" fill="#feffe5" stroke="#feffe5"/><path d="M38,-140L88,116L298,-132Z" fill="#f5fbdb" stroke="#f5fbdb"/><path d="M38,-140L298,-132L936,-130Z" fill="#e0f3cb" stroke="#e0f3cb"/><path d="M298,-132L88,116L292,100Z" fill="#f0f9c9" stroke="#f0f9c9"/><path d="M298,-132L292,100L446,-109Z" fill="#e6f5ce" stroke="#e6f5ce"/><path d="M298,-132L446,-109L815,-117Z" fill="#d8efc8" stroke="#d8efc8"/><path d="M298,-132L815,-117L936,-130Z" fill="#c9e9c2" stroke="#c9e9c2"/><path d="M446,-109L292,100L444,86Z" fill="#e3f4c2" stroke="#e3f4c2"/><path d="M446,-109L444,86L684,-70Z" fill="#d8efc8" stroke="#d8efc8"/><path d="M446,-109L684,-70L815,-117Z" fill="#cceac3" stroke="#cceac3"/><path d="M684,-70L444,86L644,102Z" fill="#d2ecb7" stroke="#d2ecb7"/><path d="M684,-70L644,102L831,119Z" fill="#c6e7b0" stroke="#c6e7b0"/><path d="M684,-70L831,119L815,-117Z" fill="#c0e5bc" stroke="#c0e5bc"/><path d="M815,-117L831,119L953,86Z" fill="#b7e0ae" stroke="#b7e0ae"/><path d="M815,-117L953,86L936,-130Z" fill="#b4dfb8" stroke="#b4dfb8"/><path d="M936,-130L953,86L1180,-53Z" fill="#a7d9b2" stroke="#a7d9b2"/><path d="M936,-130L1180,-53L1389,-66Z" fill="#9cd0ab" stroke="#9cd0ab"/><path d="M936,-130L1389,-66L1736,-118Z" fill="#92c3a2" stroke="#92c3a2"/><path d="M1180,-53L953,86L1154,80Z" fill="#a0d5a1" stroke="#a0d5a1"/><path d="M1180,-53L1154,80L1297,72Z" fill="#9acd9c" stroke="#9acd9c"/><path d="M1180,-53L1297,72L1389,-66Z" fill="#96c7a2" stroke="#96c7a2"/><path d="M1389,-66L1297,72L1491,74Z" fill="#90c095" stroke="#90c095"/><path d="M1389,-66L1491,74L1509,-62Z" fill="#8bba9c" stroke="#8bba9c"/><path d="M1389,-66L1509,-62L1736,-118Z" fill="#86b49c" stroke="#86b49c"/><path d="M1509,-62L1491,74L1658,75Z" fill="#85b48f" stroke="#85b48f"/><path d="M1509,-62L1658,75L1736,-118Z" fill="#80ad99" stroke="#80ad99"/><path d="M1736,-118L1658,75L1883,-41Z" fill="#80a495" stroke="#80a495"/><path d="M1736,-118L1883,-41L2059,-45Z" fill="#809991" stroke="#809991"/><path d="M1883,-41L1658,75L1914,110Z" fill="#809f84" stroke="#809f84"/><path d="M1883,-41L1914,110L2059,-45Z" fill="#809588" stroke="#809588"/><path d="M2059,-45L1914,110L2071,90Z" fill="#80907d" stroke="#80907d"/><path d="M2059,-45L2071,90L2103,267Z" fill="#808b71" stroke="#808b71"/><path d="M-83,127L-126,651L-89,306Z" fill="#c9f6b7" stroke="#c9f6b7"/><path d="M-83,127L-89,306L41,256Z" fill="#eaffc0" stroke="#eaffc0"/><path d="M-83,127L41,256L88,116Z" fill="#f6ffc2" stroke="#f6ffc2"/><path d="M88,116L41,256L226,303Z" fill="#e3fcb4" stroke="#e3fcb4"/><path d="M88,116L226,303L292,100Z" fill="#e7fab3" stroke="#e7fab3"/><path d="M292,100L226,303L476,292Z" fill="#d2f6a6" stroke="#d2f6a6"/><path d="M292,100L476,292L444,86Z" fill="#dbf3aa" stroke="#dbf3aa"/><path d="M444,86L476,292L644,102Z" fill="#d1efa6" stroke="#d1efa6"/><path d="M644,102L476,292L607,322Z" fill="#bced9c" stroke="#bced9c"/><path d="M644,102L607,322L769,226Z" fill="#b7e99a" stroke="#b7e99a"/><path d="M644,102L769,226L831,119Z" fill="#bee69e" stroke="#bee69e"/><path d="M831,119L769,226L951,291Z" fill="#a7e193" stroke="#a7e193"/><path d="M831,119L951,291L953,86Z" fill="#aade95" stroke="#aade95"/><path d="M953,86L951,291L1154,80Z" fill="#a2d991" stroke="#a2d991"/><path d="M1154,80L951,291L1205,291Z" fill="#8cd585" stroke="#8cd585"/><path d="M1154,80L1205,291L1297,72Z" fill="#94cc87" stroke="#94cc87"/><path d="M1297,72L1205,291L1352,290Z" fill="#83c87d" stroke="#83c87d"/><path d="M1297,72L1352,290L1491,74Z" fill="#8cc180" stroke="#8cc180"/><path d="M1491,74L1352,290L1494,322Z" fill="#77bc76" stroke="#77bc76"/><path d="M1491,74L1494,322L1658,75Z" fill="#7fb47a" stroke="#7fb47a"/><path d="M1658,75L1494,322L1671,322Z" fill="#6baf6f" stroke="#6baf6f"/><path d="M1658,75L1671,322L1881,237Z" fill="#6ea56e" stroke="#6ea56e"/><path d="M1658,75L1881,237L1914,110Z" fill="#7c9f73" stroke="#7c9f73"/><path d="M1914,110L1881,237L2103,267Z" fill="#709468" stroke="#709468"/><path d="M1914,110L2103,267L2071,90Z" fill="#798f6b" stroke="#798f6b"/><path d="M-89,306L-126,651L-76,399Z" fill="#b1ebab" stroke="#b1ebab"/><path d="M-89,306L-76,399L41,256Z" fill="#d4fab6" stroke="#d4fab6"/><path d="M41,256L-76,399L96,434Z" fill="#c8f6ad" stroke="#c8f6ad"/><path d="M41,256L96,434L226,303Z" fill="#c9f5a9" stroke="#c9f5a9"/><path d="M226,303L96,434L240,401Z" fill="#b8f09f" stroke="#b8f09f"/><path d="M226,303L240,401L476,292Z" fill="#baf09c" stroke="#baf09c"/><path d="M476,292L240,401L479,466Z" fill="#a6e893" stroke="#a6e893"/><path d="M476,292L479,466L607,322Z" fill="#a3e791" stroke="#a3e791"/><path d="M607,322L479,466L600,479Z" fill="#8fdd88" stroke="#8fdd88"/><path d="M607,322L600,479L796,444Z" fill="#87da85" stroke="#87da85"/><path d="M607,322L796,444L769,226Z" fill="#97e08c" stroke="#97e08c"/><path d="M769,226L796,444L951,291Z" fill="#8edc89" stroke="#8edc89"/><path d="M951,291L796,444L976,501Z" fill="#6fcf7b" stroke="#6fcf7b"/><path d="M951,291L976,501L1217,447Z" fill="#61c973" stroke="#61c973"/><path d="M951,291L1217,447L1205,291Z" fill="#6ecc78" stroke="#6ecc78"/><path d="M1205,291L1217,447L1369,400Z" fill="#5cbf6d" stroke="#5cbf6d"/><path d="M1205,291L1369,400L1352,290Z" fill="#67c071" stroke="#67c071"/><path d="M1352,290L1369,400L1494,322Z" fill="#5fb86c" stroke="#5fb86c"/><path d="M1494,322L1369,400L1475,467Z" fill="#4daf64" stroke="#4daf64"/><path d="M1494,322L1475,467L1671,322Z" fill="#4eaa64" stroke="#4eaa64"/><path d="M1671,322L1475,467L1670,598Z" fill="#319a56" stroke="#319a56"/><path d="M1671,322L1670,598L1755,397Z" fill="#359656" stroke="#359656"/><path d="M1671,322L1755,397L1881,237Z" fill="#559d62" stroke="#559d62"/><path d="M1881,237L1755,397L1849,500Z" fill="#46945a" stroke="#46945a"/><path d="M1881,237L1849,500L2066,473Z" fill="#3f8854" stroke="#3f8854"/><path d="M1881,237L2066,473L2103,267Z" fill="#538a5a" stroke="#538a5a"/><path d="M2103,267L2066,473L2111,841Z" fill="#226a3e" stroke="#226a3e"/><path d="M-76,399L-126,651L96,646Z" fill="#9cd897" stroke="#9cd897"/><path d="M-76,399L96,646L96,434Z" fill="#a4e59b" stroke="#a4e59b"/><path d="M96,434L96,646L251,668Z" fill="#8fd187" stroke="#8fd187"/><path d="M96,434L251,668L240,401Z" fill="#98df8e" stroke="#98df8e"/><path d="M240,401L251,668L427,581Z" fill="#88d281" stroke="#88d281"/><path d="M240,401L427,581L479,466Z" fill="#8edc87" stroke="#8edc87"/><path d="M479,466L427,581L628,583Z" fill="#79cc7a" stroke="#79cc7a"/><path d="M479,466L628,583L600,479Z" fill="#79d17c" stroke="#79d17c"/><path d="M600,479L628,583L796,444Z" fill="#6fce79" stroke="#6fce79"/><path d="M796,444L628,583L848,684Z" fill="#5dbd6d" stroke="#5dbd6d"/><path d="M796,444L848,684L976,501Z" fill="#56bd6b" stroke="#56bd6b"/><path d="M976,501L848,684L1005,583Z" fill="#48b162" stroke="#48b162"/><path d="M976,501L1005,583L1150,586Z" fill="#43b261" stroke="#43b261"/><path d="M976,501L1150,586L1217,447Z" fill="#44b763" stroke="#44b763"/><path d="M1217,447L1150,586L1396,655Z" fill="#34a356" stroke="#34a356"/><path d="M1217,447L1396,655L1369,400Z" fill="#39aa5a" stroke="#39aa5a"/><path d="M1369,400L1396,655L1475,467Z" fill="#33a256" stroke="#33a256"/><path d="M1475,467L1396,655L1522,635Z" fill="#258f4b" stroke="#258f4b"/><path d="M1475,467L1522,635L1670,598Z" fill="#228c4a" stroke="#228c4a"/><path d="M1755,397L1670,598L1849,500Z" fill="#26894d" stroke="#26894d"/><path d="M1849,500L1670,598L1902,613Z" fill="#1b7842" stroke="#1b7842"/><path d="M1849,500L1902,613L2017,611Z" fill="#1b6e3e" stroke="#1b6e3e"/><path d="M1849,500L2017,611L2066,473Z" fill="#227342" stroke="#227342"/><path d="M2066,473L2017,611L2111,841Z" fill="#115632" stroke="#115632"/><path d="M-126,651L-96,802L96,646Z" fill="#86bd8a" stroke="#86bd8a"/><path d="M96,646L-96,802L138,826Z" fill="#7db07f" stroke="#7db07f"/><path d="M96,646L138,826L251,668Z" fill="#79b67a" stroke="#79b67a"/><path d="M251,668L138,826L315,760Z" fill="#6fac71" stroke="#6fac71"/><path d="M251,668L315,760L427,581Z" fill="#74ba73" stroke="#74ba73"/><path d="M427,581L315,760L486,849Z" fill="#63ab6b" stroke="#63ab6b"/><path d="M427,581L486,849L614,796Z" fill="#5aa566" stroke="#5aa566"/><path d="M427,581L614,796L628,583Z" fill="#64b56c" stroke="#64b56c"/><path d="M628,583L614,796L848,684Z" fill="#51a863" stroke="#51a863"/><path d="M848,684L614,796L837,778Z" fill="#41995b" stroke="#41995b"/><path d="M848,684L837,778L1008,832Z" fill="#349054" stroke="#349054"/><path d="M848,684L1008,832L1005,583Z" fill="#359a57" stroke="#359a57"/><path d="M1005,583L1008,832L1134,772Z" fill="#278f50" stroke="#278f50"/><path d="M1005,583L1134,772L1150,586Z" fill="#309e54" stroke="#309e54"/><path d="M1150,586L1134,772L1396,655Z" fill="#25904c" stroke="#25904c"/><path d="M1396,655L1134,772L1399,803Z" fill="#157b41" stroke="#157b41"/><path d="M1396,655L1399,803L1502,771Z" fill="#0e723d" stroke="#0e723d"/><path d="M1396,655L1502,771L1522,635Z" fill="#147a40" stroke="#147a40"/><path d="M1522,635L1502,771L1678,783Z" fill="#066a3a" stroke="#066a3a"/><path d="M1522,635L1678,783L1670,598Z" fill="#0d723d" stroke="#0d723d"/><path d="M1670,598L1678,783L1902,613Z" fill="#0d693a" stroke="#0d693a"/><path d="M1902,613L1678,783L1863,834Z" fill="#005531" stroke="#005531"/><path d="M1902,613L1863,834L2017,611Z" fill="#095832" stroke="#095832"/><path d="M2017,611L1863,834L2111,841Z" fill="#00432a" stroke="#00432a"/><path d="M-96,802L-45,1004L138,826Z" fill="#809978" stroke="#809978"/><path d="M138,826L-45,1004L141,1000Z" fill="#7a8a6c" stroke="#7a8a6c"/><path d="M138,826L141,1000L306,1022Z" fill="#728563" stroke="#728563"/><path d="M138,826L306,1022L315,760Z" fill="#6e9466" stroke="#6e9466"/><path d="M315,760L306,1022L486,849Z" fill="#658e60" stroke="#658e60"/><path d="M486,849L306,1022L462,1010Z" fill="#617c57" stroke="#617c57"/><path d="M486,849L462,1010L645,1035Z" fill="#587752" stroke="#587752"/><path d="M486,849L645,1035L614,796Z" fill="#538456" stroke="#538456"/><path d="M614,796L645,1035L846,1003Z" fill="#48744d" stroke="#48744d"/><path d="M614,796L846,1003L837,778Z" fill="#428352" stroke="#428352"/><path d="M837,778L846,1003L949,993Z" fill="#377047" stroke="#377047"/><path d="M837,778L949,993L1008,832Z" fill="#31794a" stroke="#31794a"/><path d="M1008,832L949,993L1163,976Z" fill="#26663f" stroke="#26663f"/><path d="M1008,832L1163,976L1134,772Z" fill="#207242" stroke="#207242"/><path d="M1134,772L1163,976L1399,803Z" fill="#196b3c" stroke="#196b3c"/><path d="M1399,803L1163,976L1391,1044Z" fill="#145231" stroke="#145231"/><path d="M1399,803L1391,1044L1499,975Z" fill="#0e4a2c" stroke="#0e4a2c"/><path d="M1399,803L1499,975L1502,771Z" fill="#0b5a33" stroke="#0b5a33"/><path d="M1502,771L1499,975L1678,783Z" fill="#055430" stroke="#055430"/><path d="M1678,783L1499,975L1693,960Z" fill="#014329" stroke="#014329"/><path d="M1678,783L1693,960L1863,834Z" fill="#00432a" stroke="#00432a"/><path d="M1863,834L1693,960L1886,1020Z" fill="#002d20" stroke="#002d20"/><path d="M1863,834L1886,1020L2060,1010Z" fill="#00211b" stroke="#00211b"/><path d="M1863,834L2060,1010L2111,841Z" fill="#00271e" stroke="#00271e"/><path d="M-45,1004L306,1022L141,1000Z" fill="#767c63" stroke="#767c63"/><path d="M306,1022L645,1035L462,1010Z" fill="#5d7150" stroke="#5d7150"/><path d="M645,1035L1391,1044L846,1003Z" fill="#2e5c3b" stroke="#2e5c3b"/><path d="M846,1003L1391,1044L949,993Z" fill="#245736" stroke="#245736"/><path d="M949,993L1391,1044L1163,976Z" fill="#1d5032" stroke="#1d5032"/><path d="M1391,1044L1886,1020L1693,960Z" fill="#002c1f" stroke="#002c1f"/><path d="M1391,1044L1693,960L1499,975Z" fill="#073825" stroke="#073825"/></g></svg>